# xmcd
#
# Track frame offsets: 
#        187
#        17730
#        31972
#        48585
#        71147
#        90120
#        107832
#        128800
#        147595
#        161827
#
# Disc length: 2326 seconds
#
# Revision: 4
# Processed by: cddbd v1.5.2PL0 Copyright (c) Steve Scherf et al.
# Submitted via: ExactAudioCopy v0.95a5
#
DISCID=8809140a
DTITLE=Paul Overstreet - Love Is Strong
DYEAR=1992
DGENRE=Country
TTITLE0=Take Another Run
TTITLE1=Still Out There Swinging
TTITLE2=Me And My Baby
TTITLE3=There But For The Grace Of God Go I
TTITLE4=Love Is Strong
TTITLE5=Head Over Heels
TTITLE6=What's Going Without Saying
TTITLE7=Take Some Action
TTITLE8=Lord She Sure Is Good At Loving Me
TTITLE9=Till The Answer Comes (Gotta Keep Praying)
EXTD=
EXTT0=
EXTT1=
EXTT2=
EXTT3=
EXTT4=
EXTT5=
EXTT6=
EXTT7=
EXTT8=
EXTT9=
PLAYORDER=
